<?xml version="1.0" encoding="UTF-8"?>
<svg width="392px" height="310px" viewBox="0 0 392 310" version="1.1" xmlns="http://www.w3.org/2000/svg" xmlns:xlink="http://www.w3.org/1999/xlink">
    <!-- Generator: Sketch 60 (88103) - https://sketch.com -->
    <title>credito hipotecario subvertical</title>
    <desc>Created with Sketch.</desc>
    <defs>
        <polygon id="path-1" points="1.95479126e-05 0 97.3486049 0 97.3486049 51.1609664 1.95479126e-05 51.1609664"></polygon>
        <polygon id="path-3" points="1.74384661e-05 0 86.8435614 0 86.8435614 46.2631902 1.74384661e-05 46.2631902"></polygon>
        <polygon id="path-5" points="1.52079647e-05 0 75.735664 0 75.735664 40.2288611 1.52079647e-05 40.2288611"></polygon>
        <polygon id="path-7" points="0 0.221086866 49.1421191 0.221086866 49.1421191 68.9652429 0 68.9652429"></polygon>
        <polygon id="path-9" points="0 70.6534421 71.3821333 70.6534421 71.3821333 0 0 0"></polygon>
    </defs>
    <g id="Page-1" stroke="none" stroke-width="1" fill="none" fill-rule="evenodd">
        <g id="Artboard" transform="translate(-512.000000, -59.000000)">
            <g id="credito-hipotecario-subvertical" transform="translate(512.000000, 53.000000)">
                <path d="M137.122058,14.8163425 C61.6294159,44.6922512 90.8804515,74.7349481 23.0791242,127.17619 C-35.4988693,172.483603 32.4682827,235.1663 61.5008764,239.094389 C119.508034,246.942714 143.709644,316 194.552175,316 C245.394706,316 283.840453,236.072487 324.976747,239.094389 C330.527036,239.502117 413.569659,239.502117 386.641869,147.057171 C376.980429,113.888789 340.25501,77.5634839 309.379686,74.7349481 C253.73808,69.6375351 249.112971,46.1655192 248.374022,43.250927 C247.635074,40.3363348 212.6147,-15.0595661 137.122058,14.8163425 Z" id="Path-2" fill="#D2DADE" opacity="0.346330915"></path>
                <g id="Group-23" transform="translate(74.057306, 227.597108) rotate(-33.000000) translate(-74.057306, -227.597108) translate(37.557306, 169.097108)">
                    <g id="Group-19" transform="translate(7.821304, 0.315170)">
                        <rect id="Rectangle" fill="#8CBE28" x="0.169301922" y="0.997970659" width="48.6743025" height="92.6429388"></rect>
                        <g id="Group-3" transform="translate(26.172504, 49.027197) rotate(-270.000000) translate(-26.172504, -49.027197) translate(-22.827496, 23.027197)">
                            <mask id="mask-2" fill="white">
                                <use xlink:href="#path-1"></use>
                            </mask>
                            <g id="Clip-2"></g>
                            <path d="M3.12768557,11.9636886 L4.95346061,11.3067255 C7.85867139,10.2616922 10.1158689,7.97193882 11.1460439,5.02482577 L11.7936662,3.17271731 L3.12768557,3.17271731 L3.12768557,11.9636886 Z M86.2024047,5.02482577 C87.2329707,7.97193882 89.4899727,10.2616922 92.3951834,11.3067255 L94.2209585,11.9636886 L94.2209585,3.17271731 L85.5549778,3.17271731 L86.2024047,5.02482577 Z M3.12768557,47.9881896 L11.7936662,47.9881896 L11.1460439,46.1362795 C10.1158689,43.1889681 7.85867139,40.8994131 4.95346061,39.8541814 L3.12768557,39.1974166 L3.12768557,47.9881896 Z M14.5892132,4.28378409 C13.52307,9.59045159 9.45397654,13.7182342 4.22275964,14.7997545 L3.12768557,15.0260131 L3.12768557,36.1350921 L4.22275964,36.3613507 C9.45397654,37.442871 13.52307,41.5706537 14.5892132,46.8773212 L14.8124504,47.9881896 L82.5361937,47.9881896 L82.7594309,46.8773212 C83.825574,41.5704554 87.8946675,37.4430693 93.1256889,36.3623422 L94.2209585,36.1358853 L94.2209585,15.0260131 L93.1256889,14.7997545 C87.8946675,13.7182342 83.825574,9.59045159 82.7594309,4.28378409 L82.5361937,3.17271731 L14.8124504,3.17271731 L14.5892132,4.28378409 Z M92.3951834,39.8541814 C89.4899727,40.8994131 87.2329707,43.1889681 86.2024047,46.1362795 L85.5549778,47.9881896 L94.2209585,47.9881896 L94.2209585,39.1974166 L92.3951834,39.8541814 Z M1.22626011,51.1609664 C0.55009781,51.1609664 1.95479126e-05,50.6029543 1.95479126e-05,49.9170396 L1.95479126e-05,1.11576645 C1.95479126e-05,0.500446051 0.493408863,-5.94898462e-05 1.09978511,-5.94898462e-05 L96.7099942,-5.94898462e-05 C97.0620521,-5.94898462e-05 97.3486245,0.290646185 97.3486245,0.647980172 L97.3486245,49.9965574 C97.3486245,50.6388464 96.8337325,51.1609664 96.2007711,51.1609664 L1.22626011,51.1609664 Z" id="Fill-1" fill="#000000" mask="url(#mask-2)"></path>
                        </g>
                        <path d="M26.5924947,28.6605432 C25.8300917,28.6605432 25.2097643,28.0366429 25.2097643,27.2698488 C25.2097643,26.5030547 25.8300917,25.8791545 26.5924947,25.8791545 C27.3548977,25.8791545 27.9752251,26.5030547 27.9752251,27.2698488 C27.9752251,28.0366429 27.3548977,28.6605432 26.5924947,28.6605432" id="Fill-4" fill="#000000" transform="translate(26.592495, 27.269849) rotate(-270.000000) translate(-26.592495, -27.269849) "></path>
                        <path d="M26.5924947,72.907917 C25.8300917,72.907917 25.2097643,72.2840167 25.2097643,71.5172226 C25.2097643,70.7504285 25.8300917,70.1265283 26.5924947,70.1265283 C27.3548977,70.1265283 27.9752251,70.7504285 27.9752251,71.5172226 C27.9752251,72.2840167 27.3548977,72.907917 26.5924947,72.907917" id="Fill-6" fill="#000000" transform="translate(26.592495, 71.517223) rotate(-270.000000) translate(-26.592495, -71.517223) "></path>
                        <path d="M25.2018003,38.8197148 C19.337774,38.8197148 14.5670788,43.5630902 14.5670788,49.3935357 C14.5670788,55.2239813 19.337774,59.9673567 25.2018003,59.9673567 C31.0658267,59.9673567 35.8365219,55.2239813 35.8365219,49.3935357 C35.8365219,43.5630902 31.0658267,38.8197148 25.2018003,38.8197148 M25.2018003,63.22084 C17.5335526,63.22084 11.2948568,57.0178707 11.2948568,49.3935357 C11.2948568,41.7692008 17.5335526,35.5662314 25.2018003,35.5662314 C32.8700481,35.5662314 39.1087439,41.7692008 39.1087439,49.3935357 C39.1087439,57.0178707 32.8700481,63.22084 25.2018003,63.22084" id="Fill-8" fill="#000000" transform="translate(25.201800, 49.393536) rotate(-270.000000) translate(-25.201800, -49.393536) "></path>
                    </g>
                    <g id="Group-19-Copy" transform="translate(39.839219, 61.765822) rotate(12.000000) translate(-39.839219, -61.765822) translate(15.839219, 17.765822)">
                        <rect id="Rectangle" fill="#8CBE28" x="0.406209417" y="0.80312415" width="43.4217807" height="82.4692611"></rect>
                        <g id="Group-3" transform="translate(23.650668, 43.769511) rotate(-270.000000) translate(-23.650668, -43.769511) translate(-19.849332, 20.269511)">
                            <mask id="mask-4" fill="white">
                                <use xlink:href="#path-3"></use>
                            </mask>
                            <g id="Clip-2"></g>
                            <path d="M2.79017202,10.8183727 L4.41892476,10.2243024 C7.0106296,9.27931293 9.02424928,7.20876379 9.94325645,4.54378575 L10.5209928,2.86898459 L2.79017202,2.86898459 L2.79017202,10.8183727 Z M76.9001654,4.54378575 C77.8195213,7.20876379 79.8329666,9.27931293 82.4246715,10.2243024 L84.0534242,10.8183727 L84.0534242,2.86898459 L76.3226034,2.86898459 L76.9001654,4.54378575 Z M2.79017202,43.3941518 L10.5209928,43.3941518 L9.94325645,41.71953 C9.02424928,39.0543726 7.0106296,36.9840028 4.41892476,36.038834 L2.79017202,35.444943 L2.79017202,43.3941518 Z M13.0148679,3.87368597 C12.0637739,8.672332 8.43378282,12.4049509 3.76707489,13.3829344 L2.79017202,13.5875327 L2.79017202,32.675783 L3.76707489,32.8803813 C8.43378282,33.8583648 12.0637739,37.5909838 13.0148679,42.3896298 L13.2140152,43.3941518 L73.6295811,43.3941518 L73.8287284,42.3896298 C74.7798223,37.5908044 78.4098134,33.8585441 83.076347,32.8812779 L84.0534242,32.6765003 L84.0534242,13.5875327 L83.076347,13.3829344 C78.4098134,12.4049509 74.7798223,8.672332 73.8287284,3.87368597 L73.6295811,2.86898459 L13.2140152,2.86898459 L13.0148679,3.87368597 Z M82.4246715,36.038834 C79.8329666,36.9840028 77.8195213,39.0543726 76.9001654,41.71953 L76.3226034,43.3941518 L84.0534242,43.3941518 L84.0534242,35.444943 L82.4246715,36.038834 Z M1.09393242,46.2631902 C0.490735876,46.2631902 1.74384661e-05,45.7585981 1.74384661e-05,45.1383479 L1.74384661e-05,1.00895114 C1.74384661e-05,0.452537011 0.440164324,-5.3794724e-05 0.981105543,-5.3794724e-05 L86.2738641,-5.3794724e-05 C86.5879309,-5.3794724e-05 86.8435788,0.262821848 86.8435788,0.585947296 L86.8435788,45.2102531 C86.8435788,45.7910541 86.3842496,46.2631902 85.8195921,46.2631902 L1.09393242,46.2631902 Z" id="Fill-1" fill="#000000" mask="url(#mask-4)"></path>
                        </g>
                        <path d="M23.9805132,25.1738361 C23.4259829,25.1738361 22.9747905,24.7208106 22.9747905,24.1640273 C22.9747905,23.6072439 23.4259829,23.1542184 23.9805132,23.1542184 C24.5350436,23.1542184 24.9862359,23.6072439 24.9862359,24.1640273 C24.9862359,24.7208106 24.5350436,25.1738361 23.9805132,25.1738361" id="Fill-4" fill="#000000" transform="translate(23.980513, 24.164027) rotate(-270.000000) translate(-23.980513, -24.164027) "></path>
                        <path d="M24.2666679,65.2127126 C23.7121376,65.2127126 23.2609452,64.7596871 23.2609452,64.2029038 C23.2609452,63.6461204 23.7121376,63.1930949 24.2666679,63.1930949 C24.8211983,63.1930949 25.2723906,63.6461204 25.2723906,64.2029038 C25.2723906,64.7596871 24.8211983,65.2127126 24.2666679,65.2127126" id="Fill-6" fill="#000000" transform="translate(24.266668, 64.202904) rotate(-270.000000) translate(-24.266668, -64.202904) "></path>
                        <path d="M22.6419774,34.883592 C17.3195051,34.883592 12.9893928,39.1961827 12.9893928,44.4971178 C12.9893928,49.7980529 17.3195051,54.1106436 22.6419774,54.1106436 C27.9644497,54.1106436 32.294562,49.7980529 32.294562,44.4971178 C32.294562,39.1961827 27.9644497,34.883592 22.6419774,34.883592 M22.6419774,57.0686515 C15.681907,57.0686515 10.0193668,51.4290245 10.0193668,44.4971178 C10.0193668,37.5652111 15.681907,31.9255841 22.6419774,31.9255841 C29.6020478,31.9255841 35.2645881,37.5652111 35.2645881,44.4971178 C35.2645881,51.4290245 29.6020478,57.0686515 22.6419774,57.0686515" id="Fill-8" fill="#000000" transform="translate(22.641977, 44.497118) rotate(-270.000000) translate(-22.641977, -44.497118) "></path>
                    </g>
                    <g id="Group-19-Copy-2" transform="translate(35.956194, 72.906365) rotate(25.000000) translate(-35.956194, -72.906365) translate(14.956194, 34.406365)">
                        <rect id="Rectangle" fill="#8CBE28" x="1.43288337" y="0.812566011" width="38.3727364" height="72.4120341"></rect>
                        <g id="Group-3" transform="translate(20.937021, 38.029458) rotate(-270.000000) translate(-20.937021, -38.029458) translate(-17.062979, 17.529458)">
                            <mask id="mask-6" fill="white">
                                <use xlink:href="#path-5"></use>
                            </mask>
                            <g id="Clip-2"></g>
                            <path d="M2.43328955,9.40728062 L3.85371345,8.89069778 C6.11392116,8.06896776 7.86998484,6.26849025 8.67144457,3.95111805 L9.17528444,2.49476921 L2.43328955,2.49476921 L2.43328955,9.40728062 Z M67.0640977,3.95111805 C67.8658616,6.26849025 69.6217732,8.06896776 71.8819809,8.89069778 L73.3024048,9.40728062 L73.3024048,2.49476921 L66.56041,2.49476921 L67.0640977,3.95111805 Z M2.43328955,37.7340451 L9.17528444,37.7340451 L8.67144457,36.2778522 C7.86998484,33.960324 6.11392116,32.1600024 3.85371345,31.3381165 L2.43328955,30.8216896 L2.43328955,37.7340451 Z M11.3501755,3.36842259 C10.5207331,7.54115826 7.35504315,10.7869139 3.28523973,11.6373343 L2.43328955,11.8152458 L2.43328955,28.4137244 L3.28523973,28.591636 C7.35504315,29.4420564 10.5207331,32.687812 11.3501755,36.8605476 L11.5238504,37.7340451 L64.211844,37.7340451 L64.3855189,36.8605476 C65.2149613,32.687656 68.3806512,29.4422123 72.4503026,28.5924156 L73.3024048,28.4143481 L73.3024048,11.8152458 L72.4503026,11.6373343 C68.3806512,10.7869139 65.2149613,7.54115826 64.3855189,3.36842259 L64.211844,2.49476921 L11.5238504,2.49476921 L11.3501755,3.36842259 Z M71.8819809,31.3381165 C69.6217732,32.1600024 67.8658616,33.960324 67.0640977,36.2778522 L66.56041,37.7340451 L73.3024048,37.7340451 L73.3024048,30.8216896 L71.8819809,31.3381165 Z M0.954010831,40.2288611 C0.427967333,40.2288611 1.52079647e-05,39.7900853 1.52079647e-05,39.2507373 L1.52079647e-05,0.877348821 C1.52079647e-05,0.393510444 0.383864236,-4.67780209e-05 0.855615299,-4.67780209e-05 L75.238835,-4.67780209e-05 C75.5127304,-4.67780209e-05 75.7356792,0.228540737 75.7356792,0.509519388 L75.7356792,39.3132636 C75.7356792,39.8183079 75.3351014,40.2288611 74.8426675,40.2288611 L0.954010831,40.2288611 Z" id="Fill-1" fill="#000000" mask="url(#mask-6)"></path>
                        </g>
                        <path d="M21.420954,22.4358073 C20.8664237,22.4358073 20.4152313,21.9827818 20.4152313,21.4259984 C20.4152313,20.8692151 20.8664237,20.4161896 21.420954,20.4161896 C21.9754844,20.4161896 22.4266767,20.8692151 22.4266767,21.4259984 C22.4266767,21.9827818 21.9754844,22.4358073 21.420954,22.4358073" id="Fill-4" fill="#000000" transform="translate(21.420954, 21.425998) rotate(-270.000000) translate(-21.420954, -21.425998) "></path>
                        <path d="M21.6450955,57.346856 C21.0905652,57.346856 20.6393728,56.8938305 20.6393728,56.3370472 C20.6393728,55.7802638 21.0905652,55.3272383 21.6450955,55.3272383 C22.1996259,55.3272383 22.6508182,55.7802638 22.6508182,56.3370472 C22.6508182,56.8938305 22.1996259,57.346856 21.6450955,57.346856" id="Fill-6" fill="#000000" transform="translate(21.645096, 56.337047) rotate(-270.000000) translate(-21.645096, -56.337047) "></path>
                        <path d="M21.0391537,30.5261709 C16.3553781,30.5261709 12.5448792,34.3212507 12.5448792,38.9860736 C12.5448792,43.6508964 16.3553781,47.4459762 21.0391537,47.4459762 C25.7229293,47.4459762 29.5334282,43.6508964 29.5334282,38.9860736 C29.5334282,34.3212507 25.7229293,30.5261709 21.0391537,30.5261709 M21.0391537,50.0490232 C14.9142918,50.0490232 9.93125633,45.0861515 9.93125633,38.9860736 C9.93125633,32.8859957 14.9142918,27.9231239 21.0391537,27.9231239 C27.1640157,27.9231239 32.1470511,32.8859957 32.1470511,38.9860736 C32.1470511,45.0861515 27.1640157,50.0490232 21.0391537,50.0490232" id="Fill-8" fill="#000000" transform="translate(21.039154, 38.986074) rotate(-270.000000) translate(-21.039154, -38.986074) "></path>
                    </g>
                </g>
                <g id="Group-26" transform="translate(93.687500, 37.731125)" fill="#D5D9E5">
                    <path d="M27.0841145,15.7401446 C27.0897434,22.0523531 21.9811376,27.1632079 15.6717085,27.1575747 C9.36227934,27.1519322 4.24454254,22.0319394 4.2389043,15.7197309 C4.23327537,9.40752232 9.34188123,4.29666749 15.6513104,4.30230073 C21.9607395,4.30794328 27.0784763,9.42793602 27.0841145,15.7401446" id="Fill-24" transform="translate(15.661509, 15.729938) rotate(118.000000) translate(-15.661509, -15.729938) "></path>
                </g>
                <g id="Group-26-Copy" transform="translate(337.867917, 246.966477) rotate(14.000000) translate(-337.867917, -246.966477) translate(325.867917, 234.966477)" fill="#D5D9E5">
                    <path d="M20.6074784,11.976197 C20.6117613,16.7789643 16.7247786,20.6676582 11.924126,20.6633721 C7.12347341,20.6590788 3.22954324,16.7634322 3.22525327,11.9606648 C3.22097039,7.15789742 7.10795311,3.26920353 11.9086057,3.27348968 C16.7092583,3.27778293 20.6031885,7.17342958 20.6074784,11.976197" id="Fill-24" transform="translate(11.916366, 11.968431) rotate(118.000000) translate(-11.916366, -11.968431) "></path>
                </g>
                <g id="Group-26-Copy-6" transform="translate(34.877173, 131.360111) rotate(14.000000) translate(-34.877173, -131.360111) translate(22.877173, 119.360111)" fill="#D5D9E5">
                    <path d="M20.6074784,11.976197 C20.6117613,16.7789643 16.7247786,20.6676582 11.924126,20.6633721 C7.12347341,20.6590788 3.22954324,16.7634322 3.22525327,11.9606648 C3.22097039,7.15789742 7.10795311,3.26920353 11.9086057,3.27348968 C16.7092583,3.27778293 20.6031885,7.17342958 20.6074784,11.976197" id="Fill-24" transform="translate(11.916366, 11.968431) rotate(118.000000) translate(-11.916366, -11.968431) "></path>
                </g>
                <g id="Group-14" transform="translate(121.187500, 0.000000)" fill="#3E5F93">
                    <path d="M24.8651832,11.9878429 C17.6950062,11.9878429 11.8613617,17.8852725 11.8613617,25.1338483 C11.8613617,32.3824241 17.6950062,38.2798537 24.8651832,38.2798537 C32.0353603,38.2798537 37.8690048,32.3824241 37.8690048,25.1338483 C37.8690048,17.8852725 32.0353603,11.9878429 24.8651832,11.9878429 M24.8651832,43.5382559 C14.8277616,43.5382559 6.65983304,35.2831075 6.65983304,25.1338483 C6.65983304,14.9866775 14.8277616,6.72944075 24.8651832,6.72944075 C34.9026048,6.72944075 43.0705334,14.9866775 43.0705334,25.1338483 C43.0705334,35.2831075 34.9026048,43.5382559 24.8651832,43.5382559" id="Fill-12" transform="translate(24.865183, 25.133848) rotate(118.000000) translate(-24.865183, -25.133848) "></path>
                </g>
                <g id="Group-14-Copy" transform="translate(170.000000, 43.905310)" fill="#3E5F93">
                    <path d="M16.2282395,7.55398321 C11.7468788,7.55398321 8.10085104,11.2701717 8.10085104,15.8377674 C8.10085104,20.4053632 11.7468788,24.1215517 16.2282395,24.1215517 C20.7096002,24.1215517 24.355628,20.4053632 24.355628,15.8377674 C24.355628,11.2701717 20.7096002,7.55398321 16.2282395,7.55398321 M16.2282395,27.4350654 C9.95485102,27.4350654 4.84989565,22.233191 4.84989565,15.8377674 C4.84989565,9.4436598 9.95485102,4.24046952 16.2282395,4.24046952 C22.501628,4.24046952 27.6065834,9.4436598 27.6065834,15.8377674 C27.6065834,22.233191 22.501628,27.4350654 16.2282395,27.4350654" id="Fill-12" transform="translate(16.228240, 15.837767) rotate(118.000000) translate(-16.228240, -15.837767) "></path>
                </g>
                <g id="Group-14-Copy-2" transform="translate(348.489698, 192.340445) rotate(14.000000) translate(-348.489698, -192.340445) translate(335.989698, 180.340445)" fill="#3E5F93">
                    <path d="M12.4301409,5.74759592 C8.99760933,5.74759592 6.20490718,8.57513065 6.20490718,12.0504752 C6.20490718,15.5258198 8.99760933,18.3533545 12.4301409,18.3533545 C15.8626725,18.3533545 18.6553746,15.5258198 18.6553746,12.0504752 C18.6553746,8.57513065 15.8626725,5.74759592 12.4301409,5.74759592 M12.4301409,20.8745063 C7.62499227,20.8745063 3.71481369,16.9165584 3.71481369,12.0504752 C3.71481369,7.18539333 7.62499227,3.2264442 12.4301409,3.2264442 C17.2352895,3.2264442 21.1454681,7.18539333 21.1454681,12.0504752 C21.1454681,16.9165584 17.2352895,20.8745063 12.4301409,20.8745063" id="Fill-12" transform="translate(12.430141, 12.050475) rotate(118.000000) translate(-12.430141, -12.050475) "></path>
                </g>
                <g id="Group-14-Copy-3" transform="translate(357.941675, 225.920683) rotate(14.000000) translate(-357.941675, -225.920683) translate(349.441675, 217.920683)" fill="#3E5F93">
                    <path d="M8.2867606,3.7769916 C5.99840622,3.7769916 4.13660479,5.63508586 4.13660479,7.91888372 C4.13660479,10.2026816 5.99840622,12.0607758 8.2867606,12.0607758 C10.575115,12.0607758 12.4369164,10.2026816 12.4369164,7.91888372 C12.4369164,5.63508586 10.575115,3.7769916 8.2867606,3.7769916 M8.2867606,13.7175327 C5.08332818,13.7175327 2.47654246,11.1165955 2.47654246,7.91888372 C2.47654246,4.7218299 5.08332818,2.12023476 8.2867606,2.12023476 C11.490193,2.12023476 14.0969787,4.7218299 14.0969787,7.91888372 C14.0969787,11.1165955 11.490193,13.7175327 8.2867606,13.7175327" id="Fill-12" transform="translate(8.286761, 7.918884) rotate(118.000000) translate(-8.286761, -7.918884) "></path>
                </g>
                <g id="Group-14-Copy-15" transform="translate(62.278188, 88.321560) rotate(14.000000) translate(-62.278188, -88.321560) translate(53.778188, 80.321560)" fill="#3E5F93">
                    <path d="M8.2867606,3.7769916 C5.99840622,3.7769916 4.13660479,5.63508586 4.13660479,7.91888372 C4.13660479,10.2026816 5.99840622,12.0607758 8.2867606,12.0607758 C10.575115,12.0607758 12.4369164,10.2026816 12.4369164,7.91888372 C12.4369164,5.63508586 10.575115,3.7769916 8.2867606,3.7769916 M8.2867606,13.7175327 C5.08332818,13.7175327 2.47654246,11.1165955 2.47654246,7.91888372 C2.47654246,4.7218299 5.08332818,2.12023476 8.2867606,2.12023476 C11.490193,2.12023476 14.0969787,4.7218299 14.0969787,7.91888372 C14.0969787,11.1165955 11.490193,13.7175327 8.2867606,13.7175327" id="Fill-12" transform="translate(8.286761, 7.918884) rotate(118.000000) translate(-8.286761, -7.918884) "></path>
                </g>
                <g id="Group-14-Copy-14" transform="translate(180.528188, 305.104026) rotate(14.000000) translate(-180.528188, -305.104026) translate(172.028188, 297.104026)" fill="#3E5F93">
                    <path d="M8.2867606,3.7769916 C5.99840622,3.7769916 4.13660479,5.63508586 4.13660479,7.91888372 C4.13660479,10.2026816 5.99840622,12.0607758 8.2867606,12.0607758 C10.575115,12.0607758 12.4369164,10.2026816 12.4369164,7.91888372 C12.4369164,5.63508586 10.575115,3.7769916 8.2867606,3.7769916 M8.2867606,13.7175327 C5.08332818,13.7175327 2.47654246,11.1165955 2.47654246,7.91888372 C2.47654246,4.7218299 5.08332818,2.12023476 8.2867606,2.12023476 C11.490193,2.12023476 14.0969787,4.7218299 14.0969787,7.91888372 C14.0969787,11.1165955 11.490193,13.7175327 8.2867606,13.7175327" id="Fill-12" transform="translate(8.286761, 7.918884) rotate(118.000000) translate(-8.286761, -7.918884) "></path>
                </g>
                <path d="M144.22038,72.718169 C140.991183,72.718169 138.375,70.1067748 138.375,66.8869951 C138.375,63.6672154 140.991183,61.0558212 144.22038,61.0558212 C147.447404,61.0558212 150.0625,63.6672154 150.0625,66.8869951 C150.0625,70.1067748 147.447404,72.718169 144.22038,72.718169 L144.22038,72.718169 Z M161.0625,69.8164104 L161.0625,63.818563 L156.074028,63.4048448 C155.859229,62.621126 155.567487,61.8693958 155.206282,61.1592507 L158.550097,57.2161325 L154.300065,52.9733885 L150.476425,56.2031627 C149.781801,55.8065051 149.04443,55.4780896 148.272863,55.2264466 L147.842196,50.0794938 L141.833161,50.0794938 L141.417455,55.0579737 C140.628789,55.2712305 139.877526,55.5644586 139.165803,55.9248626 L135.213925,52.58846 L130.962824,56.8280051 L134.199773,60.6431692 C133.802234,61.3362538 133.473089,62.0719898 133.219819,62.8429131 L128.0625,63.2726256 L128.0625,69.2694067 L133.053109,69.6841912 C133.265771,70.4679099 133.557513,71.2196401 133.920855,71.928719 L130.57704,75.8718372 L134.826004,80.1135149 L138.648575,76.884807 C139.343199,77.2814646 140.081639,77.6098801 140.853206,77.8615231 L141.284942,83.0084759 L147.296114,83.0084759 L147.708614,78.0310623 C148.496211,77.8167392 149.248543,77.5224448 149.959197,77.1631071 L153.912144,80.4984434 L158.162176,76.2588983 L154.926295,72.4448005 C155.323834,71.7517159 155.652979,71.0149136 155.905181,70.2439903 L161.0625,69.8164104 Z" id="Fill-1" fill="#1464A5" opacity="0.182710193"></path>
                <path d="M267.28288,263.431858 C264.053683,263.431858 261.4375,260.820463 261.4375,257.600684 C261.4375,254.380904 264.053683,251.76951 267.28288,251.76951 C270.509904,251.76951 273.125,254.380904 273.125,257.600684 C273.125,260.820463 270.509904,263.431858 267.28288,263.431858 L267.28288,263.431858 Z M284.125,260.530099 L284.125,254.532252 L279.136528,254.118533 C278.921729,253.334815 278.629987,252.583084 278.268782,251.872939 L281.612597,247.929821 L277.362565,243.687077 L273.538925,246.916851 C272.844301,246.520194 272.10693,246.191778 271.335363,245.940135 L270.904696,240.793182 L264.895661,240.793182 L264.479955,245.771662 C263.691289,245.984919 262.940026,246.278147 262.228303,246.638551 L258.276425,243.302149 L254.025324,247.541694 L257.262273,251.356858 C256.864734,252.049942 256.535589,252.785678 256.282319,253.556602 L251.125,253.986314 L251.125,259.983095 L256.115609,260.39788 C256.328271,261.181598 256.620013,261.933329 256.983355,262.642408 L253.63954,266.585526 L257.888504,270.827203 L261.711075,267.598496 C262.405699,267.995153 263.144139,268.323569 263.915706,268.575212 L264.347442,273.722164 L270.358614,273.722164 L270.771114,268.744751 C271.558711,268.530428 272.311043,268.236133 273.021697,267.876796 L276.974644,271.212132 L281.224676,266.972587 L277.988795,263.158489 C278.386334,262.465404 278.715479,261.728602 278.967681,260.957679 L284.125,260.530099 Z" id="Fill-1-Copy-2" fill="#1464A5" opacity="0.182710193"></path>
                <path d="M127.72038,302.535024 C124.491183,302.535024 121.875,299.92363 121.875,296.70385 C121.875,293.48407 124.491183,290.872676 127.72038,290.872676 C130.947404,290.872676 133.5625,293.48407 133.5625,296.70385 C133.5625,299.92363 130.947404,302.535024 127.72038,302.535024 L127.72038,302.535024 Z M144.5625,299.633265 L144.5625,293.635418 L139.574028,293.2217 C139.359229,292.437981 139.067487,291.686251 138.706282,290.976106 L142.050097,287.032987 L137.800065,282.790243 L133.976425,286.020018 C133.281801,285.62336 132.54443,285.294944 131.772863,285.043301 L131.342196,279.896349 L125.333161,279.896349 L124.917455,284.874829 C124.128789,285.088085 123.377526,285.381313 122.665803,285.741717 L118.713925,282.405315 L114.462824,286.64486 L117.699773,290.460024 C117.302234,291.153109 116.973089,291.888845 116.719819,292.659768 L111.5625,293.08948 L111.5625,299.086262 L116.553109,299.501046 C116.765771,300.284765 117.057513,301.036495 117.420855,301.745574 L114.07704,305.688692 L118.326004,309.93037 L122.148575,306.701662 C122.843199,307.09832 123.581639,307.426735 124.353206,307.678378 L124.784942,312.825331 L130.796114,312.825331 L131.208614,307.847917 C131.996211,307.633594 132.748543,307.3393 133.459197,306.979962 L137.412144,310.315298 L141.662176,306.075753 L138.426295,302.261655 C138.823834,301.568571 139.152979,300.831769 139.405181,300.060845 L144.5625,299.633265 Z" id="Fill-1-Copy-15" fill="#1464A5" opacity="0.182710193"></path>
                <path d="M25.9698049,181.795423 C23.8803241,181.795423 22.1875,180.105697 22.1875,178.02231 C22.1875,175.938923 23.8803241,174.249197 25.9698049,174.249197 C28.0578792,174.249197 29.75,175.938923 29.75,178.02231 C29.75,180.105697 28.0578792,181.795423 25.9698049,181.795423 L25.9698049,181.795423 Z M36.625,179.724566 L36.625,175.975911 L33.5072053,175.717337 C33.3729558,175.227513 33.1906169,174.757682 32.964864,174.313841 L35.0547482,171.849392 L32.398478,169.197677 L30.008703,171.216286 C29.5745628,170.968375 29.1137063,170.763115 28.6314767,170.605838 L28.3623097,167.388993 L24.6066629,167.388993 L24.3468467,170.500543 C23.8539305,170.633828 23.3843912,170.817096 22.9395644,171.042348 L20.4696405,168.957097 L17.8127024,171.606812 L19.8357958,173.99129 C19.587334,174.424468 19.3816184,174.884303 19.2233242,175.36613 L16,175.6347 L16,179.382688 L19.1191305,179.641929 C19.2520442,180.131753 19.4343831,180.601584 19.6614718,181.044759 L17.5715876,183.509207 L20.2271899,186.160256 L22.616297,184.142314 C23.0504372,184.390225 23.5119616,184.595484 23.9941912,184.752761 L24.2640261,187.969607 L28.0210087,187.969607 L28.2788212,184.858723 C28.7710695,184.724771 29.2412767,184.540837 29.6854356,184.316251 L32.1560274,186.400836 L34.8122976,183.751121 L32.7898721,181.36731 C33.0383339,180.934132 33.2440495,180.47363 33.4016758,179.991803 L36.625,179.724566 Z" id="Fill-1-Copy-3" fill="#1464A5" opacity="0.182710193"></path>
                <g id="Group" transform="translate(119.000000, 47.000000)">
                    <polygon id="Path-4-Copy" fill="#8CBE28" points="125.714286 213 120 209.903226 122.857143 201.387097 127.142857 198.290323 130 192.096774 136.428571 189 142.142857 192.096774 146.428571 194.419355 147.857143 200.612903 157.142857 194.419355 162.857143 198.290323 165 204.483871 162.857143 209.903226 157.142857 213 144.285714 213"></polygon>
                    <polygon id="Path-5-Copy" fill="#8CBE28" points="7.16393443 213 2 206.032258 3.47540984 198.290323 11.5901639 194.419355 16.7540984 198.290323 22.6557377 194.419355 29.295082 189 32.9836066 192.096774 38.8852459 194.419355 41.0983607 198.290323 41.0983607 201.387097 47 206.032258 47 209.903226 42.5737705 213 34.4590164 213 26.3442623 213 14.5409836 213"></polygon>
                    <polygon id="Path-2" fill="#1464A5" points="5.76923077 80 5 128 55 80"></polygon>
                    <polygon id="Path-3" fill="#1464A5" points="112 78 158 78 158 126"></polygon>
                    <circle id="Oval-Copy" fill="#F49524" cx="83" cy="103" r="8"></circle>
                    <rect id="Rectangle-Copy-2" fill="#1464A5" x="69" y="146" width="30" height="55"></rect>
                    <path d="M51,50 L51,59.9231316 L46.7768316,59.9231316 L46.7768316,74 L33.9555288,74 L33.9555288,61.2700985 L30,61.2700985 L30,50 L51,50 Z" id="Combined-Shape" fill="#1464A5"></path>
                    <g id="Group-3" transform="translate(0.000000, 146.000000)">
                        <mask id="mask-8" fill="white">
                            <use xlink:href="#path-7"></use>
                        </mask>
                        <g id="Clip-2"></g>
                        <path d="M10.3654054,51.9891668 C6.68140619,51.9891668 3.68426557,54.9739058 3.68426557,58.6423297 C3.68426557,62.3110852 6.68140619,65.2958242 10.3654054,65.2958242 L41.6176381,65.2958242 C43.7348139,65.2958242 45.457121,63.5803122 45.457121,61.4718968 C45.457121,59.3631498 43.7348139,57.6476378 41.6173051,57.6476378 C40.6015002,57.6476378 39.7751391,56.824696 39.7751391,55.8130942 C39.7751391,50.5846617 35.5034978,46.3306958 30.2530082,46.3306958 C25.0025186,46.3306958 20.7308774,50.5846617 20.7308774,55.8130942 C20.7308774,56.7013542 20.094293,57.4606357 19.2166588,57.6187917 C19.1081199,57.6380224 18.9965844,57.6479693 18.8860478,57.6479693 C18.1222797,57.6479693 17.4294281,57.1688594 17.1624089,56.4559968 C16.1632511,53.7845858 13.4317979,51.9891668 10.3654054,51.9891668 L10.3654054,51.9891668 Z M10.3654054,68.9652429 C4.64979632,68.9652429 -6.65883275e-05,64.3346203 -6.65883275e-05,58.6426613 C-6.65883275e-05,52.9507023 4.64979632,48.3200797 10.3654054,48.3200797 L11.3642303,48.3200797 L11.3642303,2.0556304 C11.3642303,1.04436024 12.1905915,0.221086866 13.2063964,0.221086866 C14.2222013,0.221086866 15.0485625,1.04436024 15.0485625,2.0556304 L15.0485625,49.324387 L15.587262,49.6029008 C16.0876733,49.8618522 16.5221622,50.1237878 16.9156992,50.4036278 L17.8732393,51.0849918 L18.3926283,50.0332708 C20.6373208,45.4862023 25.1819741,42.6612771 30.2530082,42.6612771 C36.6977595,42.6612771 42.1709871,47.2474702 43.2670309,53.5664167 L43.369577,54.1569321 L43.9415707,54.3429395 C47.0522444,55.3528834 49.1421191,58.2179278 49.1421191,61.4722284 C49.1421191,65.6041788 45.7667568,68.9652429 41.6176381,68.9652429 L10.3654054,68.9652429 Z" id="Fill-1" fill="#000000" mask="url(#mask-8)"></path>
                    </g>
                    <path d="M1.82665974,144 C1.58946954,144 1.35588806,143.953093 1.13182042,143.86092 C0.45207204,143.579481 0.0111541722,142.921149 0.0111541722,142.184749 L0,72.2073893 C0,71.7284832 0.193229631,71.2613858 0.530479309,70.9258235 C0.869041243,70.585669 1.33620422,70.3924665 1.8151775,70.3924665 L33.5937423,70.3924665 L33.5937423,62.8260788 L29.8101814,62.8260788 C28.8095866,62.8260788 27.9950039,62.0119385 27.9950039,61.011156 L27.9950039,49.8149228 C27.9950039,48.8141403 28.8095866,48 29.8101814,48 L52.2057909,48 C53.2067138,48 54.0209684,48.8141403 54.0209684,49.8149228 L54.0209684,61.011484 C54.0209684,62.0122665 53.2067138,62.8264068 52.2057909,62.8264068 L48.4222301,62.8264068 L48.4222301,70.3927945 L55.0054882,70.3927945 C56.0064111,70.3927945 56.8206657,71.2069348 56.8206657,72.2077173 C56.8206657,73.2084998 56.0064111,74.0226401 55.0054882,74.0226401 L46.6070526,74.0226401 C45.6061297,74.0226401 44.7918751,73.2084998 44.7918751,72.2077173 L44.7918751,61.011484 C44.7918751,60.0107016 45.6061297,59.1965613 46.6070526,59.1965613 L50.3906134,59.1965613 L50.3906134,51.6301735 L31.6253589,51.6301735 L31.6253589,59.1965613 L35.4092478,59.1965613 C36.4101708,59.1965613 37.2244253,60.0107016 37.2244253,61.011484 L37.2244253,72.2077173 C37.2244253,73.2084998 36.4101708,74.0226401 35.4092478,74.0226401 L3.63068306,74.0226401 L3.63068306,137.801119 L81.7000468,59.7282782 C82.0428736,59.3854996 82.501835,59.1965613 82.9916344,59.1965613 C83.4817618,59.1965613 83.9403951,59.3851715 84.28355,59.7282782 L162.369645,137.803415 L162.369645,74.0226401 L110.99484,74.0226401 C109.993917,74.0226401 109.179662,73.2084998 109.179662,72.2077173 C109.179662,71.2069348 109.993917,70.3927945 110.99484,70.3927945 L164.185151,70.3927945 C164.669373,70.3927945 165.125382,70.5817328 165.468208,70.9248395 C165.811363,71.2676181 166,71.7232349 166,72.2073893 L166,142.184421 C166,142.920821 165.560066,143.579153 164.879334,143.861904 C164.658547,143.952765 164.423981,144 164.184822,144 C163.707161,144 163.239342,143.805813 162.901437,143.467955 L82.9916344,63.5690392 L3.11004567,143.468283 C2.77312406,143.806797 2.30596108,144 1.82665974,144" id="Fill-4" fill="#000000"></path>
                    <path d="M136.133357,192.281438 C130.94999,192.281438 126.732958,196.551256 126.732958,201.799505 C126.732958,202.814544 125.917161,203.640885 124.914343,203.640885 C122.824233,203.640885 121.123616,205.36279 121.123616,207.479063 C121.123616,209.595002 122.824233,211.316907 124.914343,211.316907 L155.767042,211.316907 C159.403944,211.316907 162.36244,208.321378 162.36244,204.639617 C162.36244,200.956857 159.403616,197.960995 155.766713,197.960995 C152.739522,197.960995 150.042988,199.762772 149.056275,202.445136 C148.792998,203.160655 148.109333,203.641884 147.355329,203.641884 C147.247191,203.641884 147.137739,203.631567 147.030588,203.611932 C146.16253,203.452853 145.534084,202.690742 145.534084,201.799505 C145.534084,196.551256 141.317052,192.281438 136.133357,192.281438 L136.133357,192.281438 Z M68.8186155,215 C67.8157968,215 67,214.173659 67,213.158287 C67,212.143249 67.8157968,211.316907 68.8186155,211.316907 L118.422809,211.316907 L117.946873,209.980051 C117.636922,209.109448 117.486384,208.291426 117.486384,207.479063 C117.486384,204.212968 119.549542,201.336914 122.62012,200.323206 L123.184801,200.136839 L123.286036,199.54379 C124.368068,193.201628 129.771325,188.598345 136.133685,188.598345 C141.13989,188.598345 145.626773,191.433464 147.84244,195.997477 L148.355518,197.053783 L149.301145,196.369215 C149.688337,196.088665 150.117271,195.825753 150.612271,195.565504 L151.143755,195.285952 L151.143755,147.84138 C151.143755,146.826009 151.959552,146 152.962371,146 C153.965189,146 154.780986,146.826009 154.780986,147.84138 L154.780986,194.277902 L155.767042,194.277902 C161.409582,194.277902 166,198.926114 166,204.639284 C166,207.402519 164.934402,210.003014 162.999432,211.962206 C161.06512,213.920731 158.496116,215 155.767371,215 L68.8186155,215 Z" id="Fill-7" fill="#000000"></path>
                    <path d="M83.5,94.7321492 C79.7681881,94.7321492 76.7321492,97.7681881 76.7321492,101.5 C76.7321492,105.231475 79.7681881,108.267514 83.5,108.267851 C87.2318119,108.267851 90.2678508,105.231812 90.2678508,101.5 C90.2678508,97.7681881 87.2318119,94.7321492 83.5,94.7321492 M83.5,112 C77.710211,112 73,107.289452 73,101.5 C73,95.710211 77.710211,91 83.5,91 C89.289789,91 94,95.710211 94,101.5 C94,107.289452 89.289789,112 83.5,112" id="Fill-9" fill="#000000"></path>
                    <path d="M117.173858,160.146987 L135.825816,160.146987 L135.825816,146.706361 L117.173858,146.706361 L117.173858,160.146987 Z M117.173858,177.293974 L135.825816,177.293974 L135.825816,163.853348 L117.173858,163.853348 L117.173858,177.293974 Z M109.80425,181 C108.809353,181 108,180.168773 108,179.146987 C108,178.125535 108.809353,177.293974 109.80425,177.293974 L113.565033,177.293974 L113.565033,144.853013 C113.565033,143.831227 114.374385,143 115.369282,143 L137.630391,143 C138.625615,143 139.434967,143.831227 139.434967,144.853013 L139.434967,177.293974 L143.19575,177.293974 C144.190647,177.293974 145,178.125535 145,179.146987 C145,180.168773 144.190647,181 143.19575,181 L109.80425,181 Z" id="Fill-11" fill="#000000"></path>
                    <path d="M69.0966508,199.552401 L93.9026812,199.552401 L93.9026812,175.813383 L90.0501928,175.813383 C89.0314578,175.813383 88.2024413,175.020026 88.2024413,174.044792 C88.2024413,173.069557 89.0314578,172.2762 90.0501928,172.2762 L93.9026812,172.2762 L93.9026812,148.537183 L69.0966508,148.537183 L69.0966508,199.552401 Z M55.8480855,214 C54.8290165,214 54,213.206643 54,212.231409 L54,201.320992 C54,200.345758 54.8290165,199.552401 55.8480855,199.552401 L65.4008138,199.552401 L65.4008138,146.768591 C65.4008138,145.793357 66.2298303,145 67.2488993,145 L95.7511007,145 C96.7701697,145 97.5991862,145.793357 97.5991862,146.768591 L97.5991862,199.552401 L107.151914,199.552401 C108.17065,199.552401 109,200.345758 109,201.320992 C109,201.793107 108.807609,202.237093 108.458567,202.57144 C108.109191,202.905469 107.645249,203.089584 107.152583,203.089584 L57.696171,203.089584 L57.696171,212.231409 C57.696171,213.206643 56.8671545,214 55.8480855,214 L55.8480855,214 Z" id="Fill-13" fill="#000000"></path>
                    <path d="M30.1738582,160.146836 L48.8261418,160.146836 L48.8261418,146.706329 L30.1738582,146.706329 L30.1738582,160.146836 Z M30.1738582,177.293671 L48.8261418,177.293671 L48.8261418,163.853164 L30.1738582,163.853164 L30.1738582,177.293671 Z M22.8042497,181 C21.8093526,181 21,180.168445 21,179.146668 C21,178.125226 21.8093526,177.293671 22.8042497,177.293671 L26.5653588,177.293671 L26.5653588,144.852997 C26.5653588,143.83122 27.3747114,143 28.3696085,143 L50.6303915,143 C51.6256147,143 52.4349673,143.83122 52.4349673,144.853332 L52.4349673,177.294006 L56.1957503,177.294006 C57.1906474,177.294006 58,178.125561 58,179.147003 C58,180.16878 57.1906474,181 56.1957503,181 L22.8042497,181 Z" id="Fill-14" fill="#000000"></path>
                    <g id="Group-4" transform="translate(116.682789, 40.136490) rotate(80.000000) translate(-116.682789, -40.136490) translate(82.182789, 6.636490)">
                        <path d="M23.4886493,54.1199536 L24.2250975,54.469484 C29.1420198,56.8004959 34.5402174,57.3733375 39.8358614,56.1281353 C52.6235738,53.1199082 60.5839974,40.2487739 57.5824865,27.4367037 C54.5801681,14.6238245 41.7351225,6.64692523 28.9466026,9.65434327 C16.1588902,12.6625704 8.19765906,25.5337047 11.1999775,38.346584 C12.4435413,43.6534591 15.3594563,48.2426642 19.6311789,51.6174128 L20.270726,52.1222901 L20.1520222,55.9137243 L23.4886493,54.1199536 Z M40.5739246,59.2787638 C34.8276906,60.6307669 28.9748654,60.0959529 23.5936255,57.7374317 L16.7483718,61.4172103 L16.991432,53.637731 C12.4879543,49.8592424 9.40569252,44.8444517 8.05634499,39.0860997 C4.64623451,24.5368957 13.6871052,9.91972749 28.2085394,6.50371485 C42.7299736,3.08851131 57.3184311,12.1471749 60.7269265,26.6963789 C64.1362295,41.246392 55.0953588,55.8627511 40.5739246,59.2787638 L40.5739246,59.2787638 Z" id="Fill-13" fill="#000000" transform="translate(34.391486, 33.600305) rotate(-75.000000) translate(-34.391486, -33.600305) "></path>
                        <ellipse id="Oval" fill="#FFFFFF" cx="33.1108619" cy="33.3250744" rx="23.322314" ry="23.4091022"></ellipse>
                        <path d="M13.9227673,38.1980151 C11.31708,27.013531 18.2632725,15.7696682 29.4070218,13.1337923 C40.5491441,10.4971006 51.7354582,17.4512077 54.3403317,28.6356926 C56.9460198,39.8193595 49.9998273,51.0632223 38.8568911,53.6999146 C27.7139557,56.3357898 16.5276416,49.3816828 13.9227673,38.1980151 Z" id="Fill-14" fill="#8CBE28" transform="translate(34.131551, 33.416703) rotate(78.000000) translate(-34.131551, -33.416703) "></path>
                        <path d="M29.1355225,40.9869054 C27.5397321,39.9894922 26.1629974,38.7322458 25.0061125,37.2143596 L27.0388597,33.452724 C27.6638619,34.3863351 28.405167,35.2880256 29.260386,36.1585955 C30.1148042,37.0283525 30.9276717,37.6801447 31.6973901,38.1131561 C32.332032,38.4711379 32.8391738,38.655342 33.2180212,38.6665749 C33.5968686,38.6778077 33.8848482,38.5024551 34.0803618,38.1397008 C34.2157266,37.8908677 34.2226039,37.6188496 34.1041935,37.3260883 C33.9849823,37.0325142 33.7361659,36.636404 33.3577444,36.1377577 C32.9785222,35.6382986 32.450395,34.9965528 31.7749545,34.211717 C31.016951,33.3221046 30.4665336,32.4924285 30.1229082,31.7234952 C29.7784787,30.9529395 29.6216066,30.2195694 29.6522886,29.5225753 C29.6829739,28.8263909 29.9191636,28.0694953 30.3592693,27.2535013 C31.0336944,26.0077068 31.9557361,25.2559864 33.1277902,24.9991594 C34.2998476,24.7431422 35.7226953,24.9771635 37.3971404,25.7036557 L38.2362023,24.1508497 L40.5557544,25.4572123 L39.7293576,26.9865889 C41.1709219,27.9064668 42.4693262,29.119678 43.6237729,30.6262192 L40.5451385,33.1044047 C39.3664339,31.5151811 38.1496351,30.3670695 36.8947453,29.6608795 C36.2968762,29.3249057 35.8368713,29.1619415 35.5147307,29.1719869 C35.1909983,29.1828355 34.9531529,29.3316701 34.7980076,29.6192877 C34.6634402,29.868124 34.639747,30.1230719 34.7269279,30.3841314 C34.815707,30.646007 35.0212825,30.9982224 35.3476482,31.442413 C35.6724189,31.8865973 36.148425,32.457694 36.7748657,33.1548903 C38.0343036,34.5930308 38.8113741,35.860021 39.1052832,36.9566673 C39.3999897,38.0533168 39.2433816,39.1643524 38.6346615,40.2897708 C37.9491663,41.5590012 36.993852,42.3656452 35.7695196,42.7105157 C34.5435922,43.0553798 33.1186428,42.8934097 31.492279,42.2245959 L30.3112653,44.4116155 L27.9909158,43.1052497 L29.1355225,40.9869054 Z" id="Fill-15" fill="#FFFFFF" transform="translate(34.314943, 34.281233) rotate(-106.000000) translate(-34.314943, -34.281233) "></path>
                    </g>
                </g>
                <g id="creditos-personales" transform="translate(337.500000, 161.000000) rotate(6.000000) translate(-337.500000, -161.000000) translate(301.000000, 121.000000)">
                    <g id="Group-18" transform="translate(0.185907, 0.466179)">
                        <g id="Group-70">
                            <path d="M70.4905253,49.8647717 C70.4905253,50.0692582 70.3264776,50.2343687 70.1236469,50.2343687 L47.7997906,50.2343687 C47.5969599,50.2343687 47.4329122,50.0692582 47.4329122,49.8647717 L47.4329122,18.8101181 C47.4329122,18.6065266 47.5969599,18.4409686 47.7997906,18.4409686 L70.1236469,18.4409686 C70.3264776,18.4409686 70.4905253,18.6065266 70.4905253,18.8101181 L70.4905253,49.8647717 Z" id="Fill-1" fill="#FFFFFF"></path>
                            <mask id="mask-10" fill="white">
                                <use xlink:href="#path-9"></use>
                            </mask>
                            <g id="Clip-4"></g>
                            <path d="M48.3245202,49.3394159 L69.5990064,49.3394159 L69.5990064,19.3358319 L48.3245202,19.3358319 L48.3245202,49.3394159 Z M70.1236915,51.1292321 L47.7998351,51.1292321 C47.105753,51.1292321 46.5413934,50.5623078 46.5413934,49.8647269 L46.5413934,18.8100734 C46.5413934,18.11294 47.105753,17.5464632 47.7998351,17.5464632 L70.1236915,17.5464632 C70.8173278,17.5464632 71.3821333,18.11294 71.3821333,18.8100734 L71.3821333,49.8647269 C71.3821333,50.5623078 70.8173278,51.1292321 70.1236915,51.1292321 L70.1236915,51.1292321 Z" id="Fill-3" fill="#000000" mask="url(#mask-10)"></path>
                            <path d="M70.4905253,22.5390212 L70.4905253,47.2371425 C70.4905253,47.4411815 70.3264776,47.6067395 70.1236469,47.6067395 L47.7997906,47.6067395 C47.5969599,47.6067395 47.4329122,47.4411815 47.4329122,47.2371425 L47.4329122,22.5390212" id="Fill-5" fill="#FFFFFF" mask="url(#mask-10)"></path>
                            <path d="M70.1235578,48.5018714 L47.7997014,48.5018714 C47.1056193,48.5018714 46.5417054,47.9344996 46.5417054,47.2373662 L46.5417054,22.539245 L48.3248323,22.539245 L48.3248323,46.7120552 L69.5988727,46.7120552 L69.5988727,22.539245 L71.3819995,22.539245 L71.3819995,47.2373662 C71.3819995,47.9344996 70.8176399,48.5018714 70.1235578,48.5018714" id="Fill-6" fill="#282D33" mask="url(#mask-10)"></path>
                            <polygon id="Fill-7" fill="#1464A5" mask="url(#mask-10)" points="50.5904286 27.1877556 67.3326522 27.1877556 67.3326522 23.1579844 50.5904286 23.1579844"></polygon>
                            <line x1="50.5500854" y1="30.86019" x2="53.7664004" y2="30.86019" id="Fill-8" fill="#FFFFFF" mask="url(#mask-10)"></line>
                            <polygon id="Fill-9" fill="#282D33" mask="url(#mask-10)" points="50.5498625 31.7549191 53.7661775 31.7549191 53.7661775 29.9651029 50.5498625 29.9651029"></polygon>
                            <line x1="55.0858251" y1="30.86019" x2="58.3021401" y2="30.86019" id="Fill-10" fill="#FFFFFF" mask="url(#mask-10)"></line>
                            <polygon id="Fill-11" fill="#282D33" mask="url(#mask-10)" points="55.0856914 31.7549191 58.3020064 31.7549191 58.3020064 29.9651029 55.0856914 29.9651029"></polygon>
                            <line x1="59.621119" y1="30.86019" x2="62.8374341" y2="30.86019" id="Fill-12" fill="#FFFFFF" mask="url(#mask-10)"></line>
                            <polygon id="Fill-13" fill="#282D33" mask="url(#mask-10)" points="59.6210745 31.7549191 62.8373895 31.7549191 62.8373895 29.9651029 59.6210745 29.9651029"></polygon>
                            <line x1="64.1568588" y1="30.86019" x2="67.3731738" y2="30.86019" id="Fill-14" fill="#FFFFFF" mask="url(#mask-10)"></line>
                            <polygon id="Fill-15" fill="#282D33" mask="url(#mask-10)" points="64.1569033 31.7549191 67.3732184 31.7549191 67.3732184 29.9651029 64.1569033 29.9651029"></polygon>
                            <line x1="50.5500854" y1="34.0133539" x2="53.7664004" y2="34.0133539" id="Fill-16" fill="#FFFFFF" mask="url(#mask-10)"></line>
                            <polygon id="Fill-17" fill="#282D33" mask="url(#mask-10)" points="50.5498625 34.9081278 53.7661775 34.9081278 53.7661775 33.1183116 50.5498625 33.1183116"></polygon>
                            <line x1="55.0858251" y1="34.0133539" x2="58.3021401" y2="34.0133539" id="Fill-18" fill="#FFFFFF" mask="url(#mask-10)"></line>
                            <polygon id="Fill-19" fill="#282D33" mask="url(#mask-10)" points="55.0856914 34.9081278 58.3020064 34.9081278 58.3020064 33.1183116 55.0856914 33.1183116"></polygon>
                            <line x1="59.621119" y1="34.0133539" x2="62.8374341" y2="34.0133539" id="Fill-20" fill="#FFFFFF" mask="url(#mask-10)"></line>
                            <polygon id="Fill-21" fill="#282D33" mask="url(#mask-10)" points="59.6210745 34.9081278 62.8373895 34.9081278 62.8373895 33.1183116 59.6210745 33.1183116"></polygon>
                            <line x1="64.1568588" y1="34.0133539" x2="67.3731738" y2="34.0133539" id="Fill-22" fill="#FFFFFF" mask="url(#mask-10)"></line>
                            <polygon id="Fill-23" fill="#282D33" mask="url(#mask-10)" points="64.1569033 34.9081278 67.3732184 34.9081278 67.3732184 33.1183116 64.1569033 33.1183116"></polygon>
                            <line x1="50.5500854" y1="37.167368" x2="53.7664004" y2="37.167368" id="Fill-24" fill="#FFFFFF" mask="url(#mask-10)"></line>
                            <polygon id="Fill-25" fill="#282D33" mask="url(#mask-10)" points="50.5498625 38.0622314 53.7661775 38.0622314 53.7661775 36.2724152 50.5498625 36.2724152"></polygon>
                            <line x1="55.0858251" y1="37.167368" x2="58.3021401" y2="37.167368" id="Fill-26" fill="#FFFFFF" mask="url(#mask-10)"></line>
                            <polygon id="Fill-27" fill="#282D33" mask="url(#mask-10)" points="55.0856914 38.0622314 58.3020064 38.0622314 58.3020064 36.2724152 55.0856914 36.2724152"></polygon>
                            <line x1="59.621119" y1="37.167368" x2="62.8374341" y2="37.167368" id="Fill-28" fill="#FFFFFF" mask="url(#mask-10)"></line>
                            <polygon id="Fill-29" fill="#282D33" mask="url(#mask-10)" points="59.6210745 38.0622314 62.8373895 38.0622314 62.8373895 36.2724152 59.6210745 36.2724152"></polygon>
                            <line x1="64.1568588" y1="37.167368" x2="67.3731738" y2="37.167368" id="Fill-30" fill="#FFFFFF" mask="url(#mask-10)"></line>
                            <polygon id="Fill-31" fill="#282D33" mask="url(#mask-10)" points="64.1569033 38.0622314 67.3732184 38.0622314 67.3732184 36.2724152 64.1569033 36.2724152"></polygon>
                            <line x1="50.5500854" y1="40.320532" x2="53.7664004" y2="40.320532" id="Fill-32" fill="#FFFFFF" mask="url(#mask-10)"></line>
                            <polygon id="Fill-33" fill="#282D33" mask="url(#mask-10)" points="50.5498625 41.2154401 53.7661775 41.2154401 53.7661775 39.4256239 50.5498625 39.4256239"></polygon>
                            <line x1="55.0858251" y1="40.320532" x2="58.3021401" y2="40.320532" id="Fill-34" fill="#FFFFFF" mask="url(#mask-10)"></line>
                            <polygon id="Fill-35" fill="#282D33" mask="url(#mask-10)" points="55.0856914 41.2154401 58.3020064 41.2154401 58.3020064 39.4256239 55.0856914 39.4256239"></polygon>
                            <line x1="59.621119" y1="40.320532" x2="62.8374341" y2="40.320532" id="Fill-36" fill="#FFFFFF" mask="url(#mask-10)"></line>
                            <polygon id="Fill-37" fill="#282D33" mask="url(#mask-10)" points="59.6210745 41.2154401 62.8373895 41.2154401 62.8373895 39.4256239 59.6210745 39.4256239"></polygon>
                            <line x1="64.1568588" y1="40.320532" x2="67.3731738" y2="40.320532" id="Fill-38" fill="#FFFFFF" mask="url(#mask-10)"></line>
                            <polygon id="Fill-39" fill="#282D33" mask="url(#mask-10)" points="64.1569033 41.2154401 67.3732184 41.2154401 67.3732184 39.4256239 64.1569033 39.4256239"></polygon>
                            <line x1="50.5500854" y1="43.4732485" x2="53.7664004" y2="43.4732485" id="Fill-40" fill="#FFFFFF" mask="url(#mask-10)"></line>
                            <polygon id="Fill-41" fill="#282D33" mask="url(#mask-10)" points="50.5498625 44.3682013 53.7661775 44.3682013 53.7661775 42.5783851 50.5498625 42.5783851"></polygon>
                            <line x1="55.0858251" y1="43.4732485" x2="58.3021401" y2="43.4732485" id="Fill-42" fill="#FFFFFF" mask="url(#mask-10)"></line>
                            <polygon id="Fill-43" fill="#282D33" mask="url(#mask-10)" points="55.0856914 44.3682013 58.3020064 44.3682013 58.3020064 42.5783851 55.0856914 42.5783851"></polygon>
                            <line x1="59.621119" y1="43.4732485" x2="62.8374341" y2="43.4732485" id="Fill-44" fill="#FFFFFF" mask="url(#mask-10)"></line>
                            <polygon id="Fill-45" fill="#282D33" mask="url(#mask-10)" points="59.6210745 44.3682013 62.8373895 44.3682013 62.8373895 42.5783851 59.6210745 42.5783851"></polygon>
                            <line x1="64.1568588" y1="43.4732485" x2="67.3731738" y2="43.4732485" id="Fill-46" fill="#FFFFFF" mask="url(#mask-10)"></line>
                            <polygon id="Fill-47" fill="#282D33" mask="url(#mask-10)" points="64.1569033 44.3682013 67.3732184 44.3682013 67.3732184 42.5783851 64.1569033 42.5783851"></polygon>
                            <path d="M58.2519897,11.6703623 L58.2519897,6.05615635 C58.2519897,3.20363677 60.5535606,0.894773866 63.3949732,0.894773866 C66.2354943,0.894773866 68.537511,3.20363677 68.537511,6.05615635 L68.537511,11.6703623 L58.2519897,11.6703623 Z" id="Fill-48" fill="#1464A5" mask="url(#mask-10)"></path>
                            <path d="M59.1435531,10.7754542 L67.6459476,10.7754542 L67.6459476,6.05615635 C67.6459476,3.70344294 65.7388935,1.78968197 63.3949732,1.78968197 C61.0506072,1.78968197 59.1435531,3.70344294 59.1435531,6.05615635 L59.1435531,10.7754542 Z M69.4290744,12.5652704 L57.3604263,12.5652704 L57.3604263,6.05615635 C57.3604263,2.71680676 60.0672128,-0.000134236215 63.3949732,-0.000134236215 C66.7222879,-0.000134236215 69.4290744,2.71680676 69.4290744,6.05615635 L69.4290744,12.5652704 Z" id="Fill-49" fill="#F49524" mask="url(#mask-10)"></path>
                            <path d="M58.2519897,6.05620109 L58.2519897,63.7710619 L58.2363873,63.7710619 L58.2519897,64.6337533 C58.2519897,67.2822338 56.2513214,69.4604401 53.6920886,69.7584445 C52.292334,69.7584445 8.10957167,69.749048 5.82271151,69.7584445 C8.38194429,69.4604401 10.3687934,67.2822338 10.3687934,64.6337533 L10.3687934,63.4569491 L10.3875162,63.4569491 L10.3875162,6.05620109 C10.3875162,3.40682565 12.3721364,1.22861933 14.9309234,0.931957298 C16.3297864,0.931957298 60.5121029,0.941801287 62.7980715,0.931957298 C60.2397303,1.22861933 58.2519897,3.40682565 58.2519897,6.05620109" id="Fill-50" fill="#FFFFFF" mask="url(#mask-10)"></path>
                            <path d="M18.9383226,68.8592856 C29.9540344,68.8592856 44.7999026,68.8619703 50.915136,68.8637602 L53.6384165,68.8637602 C55.7639037,68.5917081 57.360248,66.7817565 57.360248,64.633977 L57.3281517,62.8763775 L57.360248,62.8763775 L57.360248,6.05642482 C57.360248,4.42187517 58.0084146,2.92603628 59.0716039,1.83022131 C49.7311398,1.83201112 25.8916257,1.82887894 17.7057362,1.82664167 L14.9846846,1.82664167 C12.8685589,2.09690392 11.2789013,3.9064081 11.2789013,6.05642482 L11.2789013,64.352081 L11.2601785,64.352081 L11.2601785,64.633977 C11.2601785,66.2680792 10.6120119,67.7643655 9.54793092,68.860628 C11.9123571,68.8597331 15.2053466,68.8592856 18.9383226,68.8592856 L18.9383226,68.8592856 Z M53.743621,70.6535764 L50.9146902,70.6535764 C40.949686,70.6508916 7.7986835,70.6455222 5.82654523,70.6535764 L5.7200034,68.8695771 C7.86153872,68.6203451 9.47705163,66.7992072 9.47705163,64.633977 L9.49577446,6.05642482 C9.49577446,2.98062567 11.7884298,0.395236163 14.828661,0.0430898251 L14.9311908,0.0368254684 L17.706182,0.0368254684 C27.6689573,0.0395101927 60.8226345,0.0462220035 62.794327,0.0368254684 L62.900423,1.82082477 C60.7584419,2.06916177 59.1433748,3.89029976 59.1433748,6.05642482 L59.142929,64.6661937 C59.1197484,67.7339387 56.8279846,70.2942708 53.7948859,70.647312 L53.743621,70.6535764 Z" id="Fill-51" fill="#000000" mask="url(#mask-10)"></path>
                            <path d="M48.7573743,62.0399516 L48.7573743,64.6338428 C48.7573743,67.2823233 50.7433318,69.4605296 53.3025645,69.758534 C51.0179333,69.7491375 6.83472514,69.758534 5.43541636,69.758534 C2.87662936,69.4605296 0.891563415,67.2823233 0.891563415,64.6338428 L0.891563415,62.0399516 L48.7573743,62.0399516 Z" id="Fill-52" fill="#1464A5" mask="url(#mask-10)"></path>
                            <path d="M1.78312683,62.9348597 L1.78312683,64.6338428 C1.78312683,66.7829646 3.3727844,68.5924688 5.48935595,68.8636259 L8.21129905,68.8631785 C16.3976343,68.8613886 40.234028,68.8569141 49.5780584,68.8604937 C48.5139774,67.7642313 47.8658108,66.267945 47.8658108,64.6338428 L47.8658108,62.9348597 L1.78312683,62.9348597 Z M5.43541636,70.6534421 L5.33288657,70.6471778 C2.29265532,70.2932416 0,67.7082996 0,64.6338428 L0,61.1450435 L49.6489377,61.1450435 L49.6489377,64.6338428 C49.6489377,66.7995204 51.2640048,68.6202109 53.4055401,68.8698903 L53.2989983,70.6534421 C51.3290889,70.6458354 18.174966,70.6512048 8.21174483,70.6529947 L5.43541636,70.6534421 Z" id="Fill-53" fill="#000000" mask="url(#mask-10)"></path>
                            <path d="M69.4292082,12.3813221 L67.6460813,12.3813221 L67.6460813,6.0561116 C67.6460813,3.7033982 65.7390272,1.78963722 63.395107,1.78963722 C61.050741,1.78963722 59.1436868,3.7033982 59.1436868,6.0561116 L57.36056,6.0561116 C57.36056,2.71676202 60.0673465,-0.00017898162 63.395107,-0.00017898162 C66.7224216,-0.00017898162 69.4292082,2.71676202 69.4292082,6.0561116 L69.4292082,12.3813221 Z" id="Fill-54" fill="#000000" mask="url(#mask-10)"></path>
                            <path d="M53.5995889,70.6534421 C50.5990322,70.6534421 47.8659446,67.7843667 47.8659446,64.6338428 L47.8659446,61.3504249 L49.6490714,61.3504249 L49.6490714,64.6338428 C49.6490714,66.808022 51.5686074,68.8636259 53.5995889,68.8636259 L53.5995889,70.6534421 Z" id="Fill-55" fill="#282D33" mask="url(#mask-10)"></path>
                            <path d="M1.75080898,32.7361858 L20.912733,32.7361858 C21.4069771,32.7361858 21.8076411,32.3355218 21.8076411,31.8412777 C21.8076411,31.3470336 21.4069771,30.9463696 20.912733,30.9463696 L1.75080898,30.9463696 C1.25656488,30.9463696 0.855900878,31.3470336 0.855900878,31.8412777 C0.855900878,32.3355218 1.25656488,32.7361858 1.75080898,32.7361858 Z" id="Fill-61" fill="#000000" mask="url(#mask-10)"></path>
                            <path d="M1.75080898,38.5530885 L28.0452403,38.5530885 C28.5394844,38.5530885 28.9401484,38.1524245 28.9401484,37.6581804 C28.9401484,37.1639363 28.5394844,36.7632723 28.0452403,36.7632723 L1.75080898,36.7632723 C1.25656488,36.7632723 0.855900878,37.1639363 0.855900878,37.6581804 C0.855900878,38.1524245 1.25656488,38.5530885 1.75080898,38.5530885 Z" id="Fill-62" fill="#000000" mask="url(#mask-10)"></path>
                            <path d="M1.75080898,44.3699912 L28.0452403,44.3699912 C28.5394844,44.3699912 28.9401484,43.9693272 28.9401484,43.4750831 C28.9401484,42.980839 28.5394844,42.580175 28.0452403,42.580175 L1.75080898,42.580175 C1.25656488,42.580175 0.855900878,42.980839 0.855900878,43.4750831 C0.855900878,43.9693272 1.25656488,44.3699912 1.75080898,44.3699912 Z" id="Fill-63" fill="#000000" mask="url(#mask-10)"></path>
                            <path d="M1.75080898,50.1868938 L28.0452403,50.1868938 C28.5394844,50.1868938 28.9401484,49.7862298 28.9401484,49.2919857 C28.9401484,48.7977416 28.5394844,48.3970776 28.0452403,48.3970776 L1.75080898,48.3970776 C1.25656488,48.3970776 0.855900878,48.7977416 0.855900878,49.2919857 C0.855900878,49.7862298 1.25656488,50.1868938 1.75080898,50.1868938 Z" id="Fill-64" fill="#000000" mask="url(#mask-10)"></path>
                            <path d="M1.75080898,56.0037965 L28.0452403,56.0037965 C28.5394844,56.0037965 28.9401484,55.6031325 28.9401484,55.1088884 C28.9401484,54.6146443 28.5394844,54.2139803 28.0452403,54.2139803 L1.75080898,54.2139803 C1.25656488,54.2139803 0.855900878,54.6146443 0.855900878,55.1088884 C0.855900878,55.6031325 1.25656488,56.0037965 1.75080898,56.0037965 Z" id="Fill-65" fill="#000000" mask="url(#mask-10)"></path>
                            <polygon id="Fill-66" fill="#282D33" mask="url(#mask-10)" points="36.002668 38.5530885 40.6000148 38.5530885 40.6000148 36.7632723 36.002668 36.7632723"></polygon>
                            <polygon id="Fill-67" fill="#282D33" mask="url(#mask-10)" points="36.002668 44.3699912 40.6000148 44.3699912 40.6000148 42.580175 36.002668 42.580175"></polygon>
                        </g>
                        <g id="Group-16" transform="translate(48.981601, 52.378102) rotate(-15.000000) translate(-48.981601, -52.378102) translate(34.481601, 28.878102)">
                            <g id="Group-14" transform="translate(0.039196, 0.084067)">
                                <path d="M8.98526526,17.7547088 C4.1737556,17.7547088 0.27320476,13.8434817 0.27320476,9.02005962 C0.27320476,4.19714715 4.1737556,0.286429669 8.98526526,0.286429669 C13.7972833,0.286429669 17.6978341,4.19714715 17.6978341,9.02005962 C17.6978341,13.8434817 13.7972833,17.7547088 8.98526526,17.7547088 Z" id="Fill-1" fill="#8CBE28"></path>
                                <path d="M23.611848,45.2155488 L23.611848,43.0252617 C25.1877254,41.8445043 26.209504,39.9666056 26.209504,37.8425673 L26.209504,26.6021847 L26.089534,24.118874 C26.089534,22.788802 25.0138705,21.7089466 23.6865751,21.7089466 C22.3597879,21.7089466 21.2836161,22.185938 21.2836161,23.5155004 L21.2836161,22.9131459 C21.2836161,21.5835835 20.208461,20.5052569 18.8806572,20.5052569 C17.5553951,20.5052569 16.4792233,21.5835835 16.4792233,22.9131459 L16.4792233,21.7089466 C16.4792233,20.3804034 15.4020349,19.300548 14.0757561,19.300548 C12.7489689,19.300548 11.6748305,20.3804034 11.6748305,21.7089466 L11.6748305,22.9447415 C11.6748305,22.3627713 11.6529716,9.18894309 11.6529716,9.18894309 C11.6529716,7.81504495 10.537657,6.69594988 9.16562698,6.69594988 C7.79258021,6.69594988 6.68031575,7.81504495 6.68031575,9.18894309 L6.66659037,33.534357 L6.61728065,32.3474843 L6.61728065,27.369142 C6.61728065,25.3368327 4.97684307,23.6913145 2.94599457,23.6913145 L1.72443538,23.6913145 C1.67105888,23.6913145 1.77476179,23.6953913 1.72443538,23.6994682 L1.72443538,28.3047788 C1.7310439,28.3052884 1.71528512,28.3063077 1.72443538,28.3083461 L1.72443538,34.4195429 L8.68117175,42.7098155 C8.68117175,42.7098155 10.4847889,43.8559197 11.5955283,44.1265205 L11.5955283,45.2155488" id="Fill-12" fill="#FFFFFF"></path>
                                <path d="M24.6285431,45.2155488 L22.5951528,45.2155488 L22.5951528,42.5146363 L23.0033559,42.2093823 C24.3947032,41.1662185 25.1928089,39.5747185 25.1928089,37.8425673 L25.1928089,26.6021847 L25.0738556,24.1677962 C25.0728389,23.3519168 24.4511298,22.7281589 23.6865751,22.7281589 C22.3053947,22.7281589 22.3003113,23.2561109 22.3003113,23.5129524 L22.3003113,23.5155004 L20.266921,23.5155004 L20.266921,22.9131459 C20.266921,22.1472079 19.645212,21.5244692 18.8806572,21.5244692 C18.1171192,21.5244692 17.4959185,22.1472079 17.4959185,22.9131459 L15.4625282,22.9131459 L15.4625282,21.7089466 C15.4625282,20.9430086 14.8403108,20.3197603 14.0757561,20.3197603 C13.312218,20.3197603 12.6915257,20.9430086 12.6915257,21.7089466 L12.6915257,22.9432127 L12.6915257,22.9447415 L10.6581354,22.9447415 C10.6581354,22.3627713 10.6362765,9.19047191 10.6362765,9.19047191 C10.6362765,8.37612131 9.97644134,7.71516215 9.16562698,7.71516215 C8.35582931,7.71516215 7.69701087,8.37612131 7.69701087,9.18894309 L7.68328549,33.5348666 L5.65091194,33.5766543 L5.60160223,32.3897816 L5.60058553,27.369142 C5.60058553,25.9035147 4.41003554,24.7105268 2.94599457,24.7105268 L2.7411305,24.7105268 L2.7411305,28.2426069 L2.8138242,29.078361 L2.7411305,29.0967068 L2.7411305,34.04804 L9.35524062,41.9301181 C9.90781442,42.2695158 11.1237818,42.9625801 11.8359767,43.1363558 L12.6122234,43.3254197 L12.6122234,45.2155488 L10.5788332,45.2155488 L10.5788332,44.8583149 C9.47826073,44.414448 8.296861,43.6724615 8.13723986,43.5705402 L8.0040528,43.4859456 L0.707740255,34.7915553 L0.707740255,24.596375 L0.649280286,24.5892405 L0.707740255,23.3972718 L0.707740255,22.7582257 L0.746883017,22.755168 L0.750949798,22.6726118 L2.94599457,22.6721022 C3.95455613,22.6721022 4.88991564,22.9931541 5.65599542,23.5379231 L5.66362063,9.18843349 C5.66362063,7.25243978 7.23441459,5.67673761 9.16562698,5.67673761 C11.0978561,5.67673761 12.6696667,7.25243978 12.6696667,9.18894309 C12.6696667,9.18894309 12.6783086,14.5454132 12.6849171,18.5779265 C13.1098957,18.3873338 13.5811339,18.2813358 14.0757561,18.2813358 C15.3491667,18.2813358 16.4624479,18.9825538 17.050606,20.0196023 C17.5803042,19.682243 18.2081134,19.4860447 18.8806572,19.4860447 C20.0920495,19.4860447 21.1580543,20.1205043 21.7655296,21.0749966 C22.2606602,20.8344625 22.8935529,20.6897344 23.6865751,20.6897344 C25.5720362,20.6897344 27.1062291,22.2282353 27.1062291,24.118874 L27.2251824,26.5527529 L27.2261991,37.8425673 C27.2261991,40.0481426 26.2862645,42.0870768 24.6285431,43.513974 L24.6285431,45.2155488 Z" id="Fill-13" fill="#000000"></path>
                            </g>
                        </g>
                    </g>
                    <g id="Group-4" transform="translate(15.842234, 1.746229)">
                        <path d="M11.7153444,25.5670056 L12.055432,25.7325943 C14.3260384,26.8369026 16.8188951,27.1082842 19.2643931,26.5183743 C25.1696852,25.0932377 28.8457632,18.9955853 27.4596827,12.9259144 C26.0732292,6.85586011 20.141461,3.07683352 14.2357959,4.50158673 C8.33050376,5.92672324 4.65405293,12.0243756 6.04050635,18.0944299 C6.61477699,20.6085424 7.96132978,22.7826614 9.93398673,24.3814361 L10.2293259,24.6206199 L10.1745092,26.4167978 L11.7153444,25.5670056 Z M19.6052264,28.0109728 C16.9516486,28.6514793 14.2488475,28.3981132 11.7638218,27.2807725 L8.60272297,29.024054 L8.71496677,25.3385544 C6.63528666,23.5485094 5.21191584,21.1727708 4.58879491,18.4447728 C3.01402547,11.5521411 7.18904763,4.62731152 13.8949626,3.00898813 C20.6008775,1.39104806 27.3377434,5.68255649 28.911767,12.5751882 C30.4861635,19.4682032 26.3111414,26.3926495 19.6052264,28.0109728 L19.6052264,28.0109728 Z" id="Fill-13" fill="#000000" transform="translate(16.750212, 15.845898) rotate(-75.000000) translate(-16.750212, -15.845898) "></path>
                        <ellipse id="Oval" fill="#FFFFFF" cx="16.4898548" cy="16.1137913" rx="10.9350036" ry="11.2515251"></ellipse>
                        <path d="M7.07839942,17.9202474 C5.8181251,12.7432047 9.07793927,7.56192817 14.345085,6.37042074 C19.6114588,5.17853224 24.9220575,8.42068204 26.1819466,13.597723 C27.4422193,18.7743878 24.1824052,23.9556644 18.9156462,25.1475513 C13.6488857,26.3390603 8.33828694,23.0969105 7.07839942,17.9202474 Z" id="Fill-14" fill="#8CBE28" transform="translate(16.630173, 15.758918) rotate(78.000000) translate(-16.630173, -15.758918) "></path>
                        <path d="M14.2707557,19.3622665 C13.536669,18.9015746 12.9057926,18.3169689 12.3784998,17.6080641 L13.3445596,15.8211454 C13.6287283,16.2577057 13.9670419,16.6784938 14.3583872,17.0839019 C14.749366,17.4889315 15.1224123,17.7913986 15.4767898,17.990928 C15.7689723,18.1558948 16.003082,18.2396709 16.1787453,18.2426419 C16.3544086,18.2456128 16.4890701,18.1611265 16.5819934,17.9888077 C16.6463151,17.8705971 16.6511792,17.7422392 16.5980548,17.6048662 C16.544564,17.4671147 16.4315854,17.2817915 16.2591191,17.0488966 C16.0862863,16.8156232 15.845258,16.5161456 15.5367773,16.1500751 C15.1906437,15.735087 14.9404323,15.3470964 14.7857698,14.9864887 C14.6307443,14.6251205 14.5624904,14.280141 14.5810117,13.9511683 C14.5995296,13.6225776 14.7137464,13.2640856 14.9229156,12.8764629 C15.2434212,12.2846561 15.6757461,11.9243912 16.2209964,11.7960399 C16.7662433,11.6680706 17.4248063,11.7697199 18.197045,12.1021304 L18.5958085,11.3644894 L19.6637186,11.966471 L19.2709742,12.6929821 C19.9339986,13.1180469 20.5288115,13.6823617 21.0550432,14.3859299 L19.6117355,15.5738493 C19.0747604,14.8314274 18.5174003,14.2973198 17.9396519,13.9719083 C17.6643914,13.8170972 17.4520161,13.7430506 17.3025259,13.7497685 C17.1522924,13.7568751 17.0410493,13.8285444 16.9673136,13.9651719 C16.9033618,14.0833791 16.8908026,14.2037881 16.9296359,14.3263987 C16.9692055,14.4493844 17.0623964,14.6142674 17.2110512,14.8217945 C17.3589662,15.0293283 17.5762524,15.2957998 17.8625433,15.6208302 C18.4378971,16.2914875 18.7905529,16.8843741 18.9201373,17.3998752 C19.0500916,17.915373 18.9706102,18.4404299 18.6813233,18.9750495 C18.3555385,19.5779794 17.9074418,19.9643572 17.3373998,20.1345613 C16.766618,20.3047723 16.1066367,20.2371237 15.3563461,19.9316256 L14.7950619,20.9705372 L13.7267818,20.368559 L14.2707557,19.3622665 Z" id="Fill-15" fill="#FFFFFF" transform="translate(16.716771, 16.167513) rotate(-30.000000) translate(-16.716771, -16.167513) "></path>
                    </g>
                </g>
            </g>
        </g>
    </g>
</svg>